<?xml version="1.0" encoding="utf-8"?>
<!-- Generator: Adobe Illustrator 27.5.0, SVG Export Plug-In . SVG Version: 6.00 Build 0)  -->
<svg version="1.1" xmlns="http://www.w3.org/2000/svg" xmlns:xlink="http://www.w3.org/1999/xlink" x="0px" y="0px"
	 viewBox="0 0 800 1200" style="enable-background:new 0 0 800 1200;" xml:space="preserve">
<g id="Background">
	<rect style="fill:#C9C2B7;" width="800" height="1200"/>
</g>
<g id="Graphic_Elements">
	<g>
		<path style="fill:#F9F9F9;stroke:#998675;stroke-width:2;stroke-miterlimit:10;" d="M400,481.873"/>
		<path style="fill:#F9F9F9;stroke:#998675;stroke-width:2;stroke-miterlimit:10;" d="M400.174,507.373"/>
		<path style="fill:#F9F9F9;stroke:#998675;stroke-width:2;stroke-miterlimit:10;" d="M535,508.143c2-62.621-79-99.77-79-99.77H344
			c0,0-81,37.148-79,99.77c0,0-0.176,462.049-0.176,462.73c0,21.815,60.52,39.5,135.176,39.5s135.176-17.685,135.176-39.5
			C535.176,970.192,535,508.143,535,508.143z"/>
		<path style="fill:#F9F9F9;stroke:#998675;stroke-width:2;stroke-miterlimit:10;" d="M455.698,407.873H344.302
			c-0.443,0-0.802-0.359-0.802-0.802v-11.397c0-0.443,0.359-0.802,0.802-0.802h111.397c0.443,0,0.802,0.359,0.802,0.802v11.397
			C456.5,407.514,456.141,407.873,455.698,407.873z"/>
		<path style="fill:#F9F9F9;stroke:#998675;stroke-width:2;stroke-miterlimit:10;" d="M464.823,378.873H335.177
			c-0.374,0-0.677-0.303-0.677-0.677v-6.646c0-0.374,0.303-0.677,0.677-0.677h129.646c0.374,0,0.677,0.303,0.677,0.677v6.646
			C465.5,378.57,465.197,378.873,464.823,378.873z"/>
		<rect x="350" y="356.373" style="fill:#F9F9F9;stroke:#998675;stroke-width:2;stroke-miterlimit:10;" width="100" height="14"/>
		<rect x="350" y="378.873" style="fill:#F9F9F9;stroke:#998675;stroke-width:2;stroke-miterlimit:10;" width="100" height="16"/>
		<path style="fill:#F9F9F9;stroke:#998675;stroke-width:2;stroke-miterlimit:10;" d="M461.549,348.373H338.451
			c-1.16,0-2.101-0.94-2.101-2.101v8c0,1.16,0.94,2.101,2.101,2.101h123.098c1.16,0,2.101-0.94,2.101-2.101v-8
			C463.65,347.433,462.709,348.373,461.549,348.373z"/>
		<g>
			<path style="fill:#F9F9F9;stroke:#998675;stroke-width:2;stroke-miterlimit:10;" d="M461.549,356.373
				c1.16,0,2.101-0.94,2.101-2.101v-73.133c0-4.289-28.497-7.766-63.65-7.766s-63.65,3.477-63.65,7.766v73.133
				c0,1.16,0.94,2.101,2.101,2.101H461.549z"/>
		</g>
		<path style="fill:#F9F9F9;stroke:#998675;stroke-width:2;stroke-miterlimit:10;" d="M400,273.373
			c14.75,0,28.317,0.614,39.11,1.641v-22.87c0-2.635-17.51-4.772-39.11-4.772s-39.11,2.137-39.11,4.772v22.87
			C371.683,273.987,385.25,273.373,400,273.373z"/>
		<path style="fill:#F9F9F9;stroke:#998675;stroke-width:2;stroke-miterlimit:10;" d="M433.35,207.373l-67.85-0.859v43.382
			c6.588-1.533,19.564-2.577,34.5-2.577c14.936,0,27.912,1.043,34.5,2.577v-42.696C434.111,207.256,433.727,207.313,433.35,207.373z
			"/>
		<path style="fill:#F9F9F9;stroke:#998675;stroke-width:2;stroke-miterlimit:10;" d="M417.35,196.373
			c56.039-8.268,87.038,2.768,93,5l9-2c0,0-39-16-100-7c-40.771,6.015-63,5-63,5l-0.896,4.033
			C360.386,201.518,381.827,201.615,417.35,196.373z"/>
		<path style="fill:#F9F9F9;stroke:#998675;stroke-width:2;stroke-miterlimit:10;" d="M356.35,197.373c0,0,22.229,1.015,63-5
			c61-9,101.73,7.657,101.73,7.657l-7.972,10.5c0,0-54.704-7.157-79.758-3.157l-79-1L356.35,197.373z"/>
		<polygon style="fill:#F9F9F9;stroke:#998675;stroke-width:2;stroke-miterlimit:10;" points="506.114,209.573 510.35,201.373 
			520.35,200.373 513.35,210.373 		"/>
	</g>
</g>
</svg>
